<?xml version="1.0" encoding="UTF-8"?>
<svg width="180px" height="180px" viewBox="0 0 180 180" version="1.1" xmlns="http://www.w3.org/2000/svg" xmlns:xlink="http://www.w3.org/1999/xlink">
    <title>Artboard</title>
    <g id="Artboard" stroke="none" stroke-width="1" fill="none" fill-rule="evenodd">
        <rect fill="#FFFFFF" x="0" y="0" width="180" height="180"></rect>
        <path d="M30.7234929,79.628705 C31.2343245,79.628705 31.7601805,79.5394488 32.301061,79.3609364 L32.301061,79.3609364 L34.3293629,78.7361431 C36.1923957,78.0518455 37.1239122,76.891515 37.1239122,75.2551513 L37.1239122,75.2551513 L37.1239122,74.8088703 C37.1239122,74.66011 37.0938632,74.5113497 37.0337654,74.3625893 C36.3726892,70.0782918 35.7641987,65.8386224 35.2082937,61.6435811 C34.6523887,57.4485398 34.2392161,53.2088703 33.9687759,48.9245728 C33.8786291,47.674986 33.7809702,46.4253993 33.675799,45.1758125 C33.5706277,43.9262257 33.5180421,42.6766389 33.5180421,41.4270522 C33.5180421,40.891515 33.5255544,40.3336637 33.5405788,39.7534984 C33.5556033,39.1733331 33.6081889,38.6006059 33.6983356,38.0353166 C33.7884824,37.4402753 33.9838003,36.9419282 34.2842895,36.5402753 C34.5847787,36.1386224 35.0355124,35.8485398 35.6364908,35.6700274 C37.0788388,35.2534984 38.7766026,34.8741596 40.7297822,34.5320108 C42.6829618,34.1898621 44.5159457,33.8997794 46.228734,33.6617629 C46.8898101,33.6022588 47.4306906,33.4386224 47.8513755,33.1708538 C48.2720603,32.9030852 48.6025984,32.5609364 48.8429897,32.1444075 C49.0833811,31.7278786 49.2486501,31.2592836 49.3387969,30.7386224 C49.4289436,30.2179612 49.474017,29.674986 49.474017,29.1096968 C49.474017,28.0088703 49.2261134,27.1534984 48.7303063,26.5435811 C48.2344992,25.9336637 47.5058129,25.628705 46.5442476,25.628705 C45.7629758,25.628705 44.8990694,25.6882092 43.9525285,25.8072174 C43.0059876,25.9262257 42.0293978,26.074986 41.0227591,26.2534984 C40.0161204,26.4320108 39.0169939,26.6328373 38.0253797,26.8559778 C37.0337654,27.0791183 36.1172734,27.3096968 35.2759038,27.5477133 C34.4946319,27.7857298 33.7884824,27.9716803 33.1574551,28.1055645 C32.5264279,28.2394488 31.8202783,28.3807712 31.0390065,28.5295315 C27.4932343,29.1840769 23.977511,29.8088703 20.4918367,30.4039117 C17.0061623,30.998953 13.5054635,31.5642422 9.98974025,32.0997794 C9.29861516,32.2187877 8.72768574,32.4419282 8.27695199,32.7692009 C7.82621824,33.0964736 7.46563124,33.4906885 7.19519099,33.9518455 C6.92475073,34.4130026 6.736945,34.9187877 6.6317738,35.4692009 C6.52660259,36.0196141 6.47401698,36.5774654 6.47401698,37.1427546 C6.47401698,39.2253993 7.4806557,40.2667216 9.49393312,40.2667216 C9.70427554,40.2667216 10.1324726,40.2146555 10.7785243,40.1105232 C11.424576,40.006391 12.1833112,39.8799447 13.0547298,39.7311844 C13.9261484,39.5824241 14.8576648,39.4113497 15.849279,39.2179612 C16.8408933,39.0245728 17.7874342,38.8534984 18.6889017,38.7047381 C19.5903692,38.5559778 20.3791532,38.4295315 21.0552539,38.3253993 C21.7313545,38.221267 22.1896005,38.1692009 22.4299918,38.1692009 C23.6619974,38.1692009 24.2780002,38.8981265 24.2780002,40.3559778 C24.2780002,41.3973001 24.2930247,42.4088703 24.3230736,43.3906885 C24.3531225,44.3725067 24.3981959,45.2799447 24.4582937,46.1130026 C24.6385872,51.26011 25.0442476,56.3700274 25.6752748,61.4427546 C26.3063021,66.5154819 27.0425006,71.6105232 27.8838702,76.7278786 C28.0341148,77.6799447 28.3496284,78.4014323 28.8304111,78.8923414 C29.3111938,79.3832505 29.942221,79.628705 30.7234929,79.628705 Z M56.4466732,30.628705 C57.9935482,30.628705 59.2181576,30.2379554 60.1205014,29.4564562 C61.0228451,28.674957 61.474017,27.598402 61.474017,26.2267912 C61.474017,25.4931389 61.3164649,24.78341 61.0013607,24.0976046 C60.6862566,23.4117991 60.2637305,22.813713 59.7337826,22.3033462 C59.2038347,21.7929794 58.5951107,21.3862808 57.9076107,21.0832505 C57.2201107,20.7802202 56.5039649,20.628705 55.7591732,20.628705 C54.1550066,20.628705 52.8731055,21.0433781 51.9134701,21.8727242 C50.9538347,22.7020703 50.474017,23.7865998 50.474017,25.1263127 C50.474017,25.9237609 50.6315691,26.6574132 50.9466732,27.3272696 C51.2617774,27.9971261 51.6843034,28.5792633 52.2142514,29.0736811 C52.7441993,29.568099 53.3744076,29.9508741 54.1048764,30.2220065 C54.8353451,30.4931389 55.6159441,30.628705 56.4466732,30.628705 Z M56.2585698,77.628705 C58.2856701,77.628705 59.828353,77.2570306 60.8866186,76.5136816 C61.9448842,75.7703326 62.474017,74.6553091 62.474017,73.1686111 C62.474017,71.7413811 62.4442067,70.1654813 62.3845861,68.4409116 C62.3249655,66.716342 62.2504397,64.9248709 62.1610089,63.0664985 C62.071578,61.208126 61.9746945,59.3200196 61.8703584,57.4021792 C61.7660224,55.4843388 61.6467812,53.6259664 61.5126349,51.8270619 C61.3784885,50.0281573 61.2443422,48.3258881 61.1101958,46.7202543 C60.9760495,45.1146205 60.8493557,43.6725235 60.7301145,42.3939633 C60.5512528,40.5504578 59.1203584,39.628705 56.4374316,39.628705 C54.9469167,39.628705 53.7470522,39.9632121 52.8378381,40.6322262 C51.928624,41.3012403 51.474017,42.1560916 51.474017,43.1967802 C51.474017,43.8806612 51.5709005,45.151788 51.7646674,47.0101604 C51.9584343,48.8685329 52.1671064,51.1952152 52.3906836,53.9902074 C52.6142609,56.7851996 52.822933,59.9741667 53.0166999,63.5571088 C53.2104668,67.1400509 53.3073503,70.9831651 53.3073503,75.0864515 C53.3073503,75.9190024 53.5681904,76.550849 54.0898706,76.9819914 C54.6115509,77.4131338 55.3344506,77.628705 56.2585698,77.628705 Z M103.211106,76.628705 C103.835519,76.628705 104.459932,76.545464 105.084346,76.3789819 C105.708759,76.2124998 106.273704,75.970344 106.779181,75.6525146 C107.284659,75.3346851 107.693501,74.9260472 108.005707,74.4266009 C108.317914,73.9271547 108.474017,73.3293326 108.474017,72.6331347 C108.474017,72.3909789 108.45915,72.1336884 108.429416,71.8612632 C108.399682,71.5888379 108.355081,71.2861432 108.295613,70.953179 C107.076521,64.414973 105.857429,58.9134965 104.638336,54.4487493 C103.419244,49.9840022 102.13325,46.381935 100.780355,43.6425478 C99.4274599,40.9031606 97.9704959,38.9280775 96.409463,37.7172986 C94.8484301,36.5065197 93.116427,35.9011303 91.2134536,35.9011303 C87.1101672,35.9011303 83.9732345,39.0945596 81.8026555,45.4814182 C81.5350498,46.4197719 81.2674442,46.8889487 80.9998386,46.8889487 C80.8214348,46.8889487 80.6801985,46.7300339 80.5761297,46.4122045 C80.4720608,46.094375 80.3605585,45.6327656 80.2416226,45.0273761 C80.0632189,43.0598605 79.8773816,41.4631458 79.6841109,40.2372322 C79.4908401,39.0113186 79.2752689,38.0578302 79.0373973,37.3767671 C78.7995256,36.6957039 78.5244865,36.2340945 78.2122799,35.9919387 C77.9000733,35.7497829 77.5209653,35.628705 77.0749559,35.628705 C76.272139,35.628705 75.4767556,35.7422156 74.6888057,35.9692366 C73.9008558,36.1962576 73.1946743,36.4838176 72.5702611,36.8319166 C71.945848,37.1800155 71.4403707,37.5735186 71.0538292,38.012426 C70.6672877,38.4513333 70.474017,38.897808 70.474017,39.3518501 C70.474017,39.9269701 70.5632189,40.8199195 70.7416226,42.0306984 C70.9200264,43.2414773 71.1430311,45.0803477 71.4106367,47.5473097 C71.6782423,50.0142717 71.9681484,53.2833747 72.280355,57.3546187 C72.5925616,61.4258627 72.8824677,66.6095098 73.1500733,72.90556 C73.2095412,73.6925662 73.5217478,74.3130904 74.086693,74.7671325 C74.6516383,75.2211746 75.4693221,75.4481956 76.5397447,75.4481956 C78.1453785,75.4481956 79.4685397,75.084962 80.5092282,74.3584946 C81.5499168,73.6320273 82.144596,72.6634042 82.2932658,71.4526253 C82.8284771,67.0030129 83.3859888,63.1739247 83.965801,59.9653606 C84.5456132,56.7567966 85.1477259,54.1082178 85.772139,52.0196242 C86.3965522,49.9310306 87.0432658,48.3948549 87.7122799,47.4110971 C88.381294,46.4273392 89.1023425,45.9354603 89.8754254,45.9354603 C90.6485084,45.9354603 91.4215913,46.5711192 92.1946743,47.842437 C92.9677572,49.1137549 93.7482736,50.96776 94.5362236,53.4044526 C95.3241735,55.8411451 96.1269904,58.8453902 96.9446743,62.4171879 C97.7623581,65.9889856 98.6023425,70.0753643 99.4646273,74.6763241 C99.6132971,75.4330609 99.9626711,75.9476419 100.512749,76.2200672 C101.062828,76.4924924 101.96228,76.628705 103.211106,76.628705 Z" id="Tin" fill="#000000" fill-rule="nonzero" transform="translate(57.474017, 50.128705) rotate(-3.000000) translate(-57.474017, -50.128705) "></path>
        <path d="M94.7234929,134.628705 C95.2343245,134.628705 95.7601805,134.539449 96.301061,134.360936 L96.301061,134.360936 L98.3293629,133.736143 C100.192396,133.051846 101.123912,131.891515 101.123912,130.255151 L101.123912,130.255151 L101.123912,129.80887 C101.123912,129.66011 101.093863,129.51135 101.033765,129.362589 C100.372689,125.078292 99.7641987,120.838622 99.2082937,116.643581 C98.6523887,112.44854 98.2392161,108.20887 97.9687759,103.924573 C97.8786291,102.674986 97.7809702,101.425399 97.675799,100.175812 C97.5706277,98.9262257 97.5180421,97.6766389 97.5180421,96.4270522 C97.5180421,95.891515 97.5255544,95.3336637 97.5405788,94.7534984 C97.5556033,94.1733331 97.6081889,93.6006059 97.6983356,93.0353166 C97.7884824,92.4402753 97.9838003,91.9419282 98.2842895,91.5402753 C98.5847787,91.1386224 99.0355124,90.8485398 99.6364908,90.6700274 C101.078839,90.2534984 102.776603,89.8741596 104.729782,89.5320108 C106.682962,89.1898621 108.515946,88.8997794 110.228734,88.6617629 C110.88981,88.6022588 111.430691,88.4386224 111.851375,88.1708538 C112.27206,87.9030852 112.602598,87.5609364 112.84299,87.1444075 C113.083381,86.7278786 113.24865,86.2592836 113.338797,85.7386224 C113.428944,85.2179612 113.474017,84.674986 113.474017,84.1096968 C113.474017,83.0088703 113.226113,82.1534984 112.730306,81.5435811 C112.234499,80.9336637 111.505813,80.628705 110.544248,80.628705 C109.762976,80.628705 108.899069,80.6882092 107.952529,80.8072174 C107.005988,80.9262257 106.029398,81.074986 105.022759,81.2534984 C104.01612,81.4320108 103.016994,81.6328373 102.02538,81.8559778 C101.033765,82.0791183 100.117273,82.3096968 99.2759038,82.5477133 C98.4946319,82.7857298 97.7884824,82.9716803 97.1574551,83.1055645 C96.5264279,83.2394488 95.8202783,83.3807712 95.0390065,83.5295315 C91.4932343,84.1840769 87.977511,84.8088703 84.4918367,85.4039117 C81.0061623,85.998953 77.5054635,86.5642422 73.9897403,87.0997794 C73.2986152,87.2187877 72.7276857,87.4419282 72.276952,87.7692009 C71.8262182,88.0964736 71.4656312,88.4906885 71.195191,88.9518455 C70.9247507,89.4130026 70.736945,89.9187877 70.6317738,90.4692009 C70.5266026,91.0196141 70.474017,91.5774654 70.474017,92.1427546 C70.474017,94.2253993 71.4806557,95.2667216 73.4939331,95.2667216 C73.7042755,95.2667216 74.1324726,95.2146555 74.7785243,95.1105232 C75.424576,95.006391 76.1833112,94.8799447 77.0547298,94.7311844 C77.9261484,94.5824241 78.8576648,94.4113497 79.849279,94.2179612 C80.8408933,94.0245728 81.7874342,93.8534984 82.6889017,93.7047381 C83.5903692,93.5559778 84.3791532,93.4295315 85.0552539,93.3253993 C85.7313545,93.221267 86.1896005,93.1692009 86.4299918,93.1692009 C87.6619974,93.1692009 88.2780002,93.8981265 88.2780002,95.3559778 C88.2780002,96.3973001 88.2930247,97.4088703 88.3230736,98.3906885 C88.3531225,99.3725067 88.3981959,100.279945 88.4582937,101.113003 C88.6385872,106.26011 89.0442476,111.370027 89.6752748,116.442755 C90.3063021,121.515482 91.0425006,126.610523 91.8838702,131.727879 C92.0341148,132.679945 92.3496284,133.401432 92.8304111,133.892341 C93.3111938,134.38325 93.942221,134.628705 94.7234929,134.628705 Z M120.446673,85.628705 C121.993548,85.628705 123.218158,85.2379554 124.120501,84.4564562 C125.022845,83.674957 125.474017,82.598402 125.474017,81.2267912 C125.474017,80.4931389 125.316465,79.78341 125.001361,79.0976046 C124.686257,78.4117991 124.263731,77.813713 123.733783,77.3033462 C123.203835,76.7929794 122.595111,76.3862808 121.907611,76.0832505 C121.220111,75.7802202 120.503965,75.628705 119.759173,75.628705 C118.155007,75.628705 116.873106,76.0433781 115.91347,76.8727242 C114.953835,77.7020703 114.474017,78.7865998 114.474017,80.1263127 C114.474017,80.9237609 114.631569,81.6574132 114.946673,82.3272696 C115.261777,82.9971261 115.684303,83.5792633 116.214251,84.0736811 C116.744199,84.568099 117.374408,84.9508741 118.104876,85.2220065 C118.835345,85.4931389 119.615944,85.628705 120.446673,85.628705 Z M46.4609375,127 C51.2421875,127 55.0273438,125.788676 57.8164062,123.366029 C60.6054688,120.943381 62,117.606061 62,113.354067 C62,111.079745 61.5130208,108.879585 60.5390625,106.753589 C59.5651042,104.627592 58.2591146,102.773525 56.6210938,101.191388 C54.9830729,99.6092504 53.1015625,98.3484848 50.9765625,97.4090909 C48.8515625,96.469697 46.6380208,96 44.3359375,96 C39.3776042,96 35.4153646,97.2854864 32.4492188,99.8564593 C29.4830729,102.427432 28,105.789474 28,109.942584 C28,112.414673 28.4869792,114.688995 29.4609375,116.76555 C30.4348958,118.842105 31.7408854,120.64673 33.3789062,122.179426 C35.0169271,123.712121 36.9648438,124.898724 39.2226562,125.739234 C41.4804688,126.579745 43.8932292,127 46.4609375,127 Z M120.25857,132.628705 C122.28567,132.628705 123.828353,132.257031 124.886619,131.513682 C125.944884,130.770333 126.474017,129.655309 126.474017,128.168611 C126.474017,126.741381 126.444207,125.165481 126.384586,123.440912 C126.324965,121.716342 126.25044,119.924871 126.161009,118.066498 C126.071578,116.208126 125.974694,114.32002 125.870358,112.402179 C125.766022,110.484339 125.646781,108.625966 125.512635,106.827062 C125.378489,105.028157 125.244342,103.325888 125.110196,101.720254 C124.97605,100.114621 124.849356,98.6725235 124.730115,97.3939633 C124.551253,95.5504578 123.120358,94.628705 120.437432,94.628705 C118.946917,94.628705 117.747052,94.9632121 116.837838,95.6322262 C115.928624,96.3012403 115.474017,97.1560916 115.474017,98.1967802 C115.474017,98.8806612 115.5709,100.151788 115.764667,102.01016 C115.958434,103.868533 116.167106,106.195215 116.390684,108.990207 C116.614261,111.7852 116.822933,114.974167 117.0167,118.557109 C117.210467,122.140051 117.30735,125.983165 117.30735,130.086452 C117.30735,130.919002 117.56819,131.550849 118.089871,131.981991 C118.611551,132.413134 119.334451,132.628705 120.25857,132.628705 Z M167.211106,131.628705 C167.835519,131.628705 168.459932,131.545464 169.084346,131.378982 C169.708759,131.2125 170.273704,130.970344 170.779181,130.652515 C171.284659,130.334685 171.693501,129.926047 172.005707,129.426601 C172.317914,128.927155 172.474017,128.329333 172.474017,127.633135 C172.474017,127.390979 172.45915,127.133688 172.429416,126.861263 C172.399682,126.588838 172.355081,126.286143 172.295613,125.953179 C171.076521,119.414973 169.857429,113.913496 168.638336,109.448749 C167.419244,104.984002 166.13325,101.381935 164.780355,98.6425478 C163.42746,95.9031606 161.970496,93.9280775 160.409463,92.7172986 C158.84843,91.5065197 157.116427,90.9011303 155.213454,90.9011303 C151.110167,90.9011303 147.973235,94.0945596 145.802655,100.481418 C145.53505,101.419772 145.267444,101.888949 144.999839,101.888949 C144.821435,101.888949 144.680199,101.730034 144.57613,101.412204 C144.472061,101.094375 144.360558,100.632766 144.241623,100.027376 C144.063219,98.0598605 143.877382,96.4631458 143.684111,95.2372322 C143.49084,94.0113186 143.275269,93.0578302 143.037397,92.3767671 C142.799526,91.6957039 142.524486,91.2340945 142.21228,90.9919387 C141.900073,90.7497829 141.520965,90.628705 141.074956,90.628705 C140.272139,90.628705 139.476756,90.7422156 138.688806,90.9692366 C137.900856,91.1962576 137.194674,91.4838176 136.570261,91.8319166 C135.945848,92.1800155 135.440371,92.5735186 135.053829,93.012426 C134.667288,93.4513333 134.474017,93.897808 134.474017,94.3518501 C134.474017,94.9269701 134.563219,95.8199195 134.741623,97.0306984 C134.920026,98.2414773 135.143031,100.080348 135.410637,102.54731 C135.678242,105.014272 135.968148,108.283375 136.280355,112.354619 C136.592562,116.425863 136.882468,121.60951 137.150073,127.90556 C137.209541,128.692566 137.521748,129.31309 138.086693,129.767133 C138.651638,130.221175 139.469322,130.448196 140.539745,130.448196 C142.145378,130.448196 143.46854,130.084962 144.509228,129.358495 C145.549917,128.632027 146.144596,127.663404 146.293266,126.452625 C146.828477,122.003013 147.385989,118.173925 147.965801,114.965361 C148.545613,111.756797 149.147726,109.108218 149.772139,107.019624 C150.396552,104.931031 151.043266,103.394855 151.71228,102.411097 C152.381294,101.427339 153.102342,100.93546 153.875425,100.93546 C154.648508,100.93546 155.421591,101.571119 156.194674,102.842437 C156.967757,104.113755 157.748274,105.96776 158.536224,108.404453 C159.324173,110.841145 160.12699,113.84539 160.944674,117.417188 C161.762358,120.988986 162.602342,125.075364 163.464627,129.676324 C163.613297,130.433061 163.962671,130.947642 164.512749,131.220067 C165.062828,131.492492 165.96228,131.628705 167.211106,131.628705 Z" id="Tin-Copy-2" fill="#000000" fill-rule="nonzero"></path>
        <path d="M90.9984072,226.628705 C93.7626349,226.628705 95.8662934,225.06376 97.3093828,221.933869 C98.7524723,218.803979 99.474017,214.109143 99.474017,207.849362 C99.474017,201.839973 99.4333666,195.204605 99.3520658,187.943259 C99.2707649,180.681913 99.1691389,173.138877 99.0471877,165.314151 C98.9252365,157.489425 98.7931227,149.539503 98.6508462,141.464386 C98.5085698,133.389268 98.3459682,125.564542 98.1630414,117.990207 C97.9801145,110.415872 97.7971877,103.248423 97.6142609,96.48786 C97.4313341,89.7272966 97.2585698,83.6553091 97.0959682,78.2718975 C96.8520658,70.5097692 94.9008462,66.628705 91.2423097,66.628705 C89.2097893,66.628705 87.5736105,68.0371557 86.3337731,70.8540572 C85.0939357,73.6709586 84.474017,77.2703326 84.474017,81.6521792 C84.474017,84.5316784 84.6061308,89.8837911 84.8703584,97.7085173 C85.1345861,105.533243 85.4191389,115.329801 85.724017,127.098189 C86.028895,138.866577 86.3134479,152.293807 86.5776755,167.379879 C86.8419032,182.465951 86.974017,198.647484 86.974017,215.92448 C86.974017,219.429957 87.329708,222.090364 88.0410902,223.9057 C88.7524723,225.721037 89.7382446,226.628705 90.9984072,226.628705 Z" id="Tin-Copy" fill="#000000" fill-rule="nonzero" transform="translate(91.974017, 146.628705) rotate(-90.000000) translate(-91.974017, -146.628705) "></path>
    </g>
</svg>